<?xml version="1.0" encoding="utf-8"?>
<!-- Generator: Adobe Illustrator 19.0.0, SVG Export Plug-In . SVG Version: 6.00 Build 0)  -->
<!DOCTYPE svg PUBLIC "-//W3C//DTD SVG 1.1//EN" "http://www.w3.org/Graphics/SVG/1.1/DTD/svg11.dtd">
<svg version="1.1" id="Layer_1" xmlns="http://www.w3.org/2000/svg" xmlns:xlink="http://www.w3.org/1999/xlink" x="0px" y="0px"
	 viewBox="0 0 176.7 122.7" enable-background="new 0 0 176.7 122.7" xml:space="preserve">
<g id="XMLID_2_">
	<path id="XMLID_1_" fill="#F7EC1F" stroke="#000000" stroke-miterlimit="10" d="M145.5,85.5H32.7c-2.8,0-5-2.2-5-5V13
		c0-2.8,2.2-5,5-5h112.7c2.8,0,5,2.2,5,5v67.5C150.5,83.3,148.2,85.5,145.5,85.5z"/>
	<path id="XMLID_9_" fill="#144A9C" stroke="#EC262A" stroke-miterlimit="10" d="M32.7,82.5c-1.1,0-2-0.9-2-2V13c0-1.1,0.9-2,2-2
		h112.7c1.1,0,2,0.9,2,2v67.5c0,1.1-0.9,2-2,2H32.7z"/>
	<polygon id="XMLID_84_" fill="#174A9C" points="73.2,78.5 89.6,111 105,80.1 	"/>
	<g id="XMLID_8_">
		<linearGradient id="XMLID_66_" gradientUnits="userSpaceOnUse" x1="144.7719" y1="33.2136" x2="144.7719" y2="38.2478">
			<stop  offset="0" style="stop-color:#FFFFFF"/>
			<stop  offset="0.1215" style="stop-color:#F9F9FB"/>
			<stop  offset="0.2852" style="stop-color:#E8E9EF"/>
			<stop  offset="0.4729" style="stop-color:#CCCFDC"/>
			<stop  offset="0.6785" style="stop-color:#A4ABC1"/>
			<stop  offset="0.8961" style="stop-color:#727D9F"/>
			<stop  offset="1" style="stop-color:#58648D"/>
		</linearGradient>
		
			<path id="XMLID_6_" fill="url(#XMLID_66_)" stroke="#808285" stroke-width="0.7" stroke-linecap="round" stroke-linejoin="round" stroke-miterlimit="10" d="
			M128.5,33.2h37c0,0-0.9,5-6.4,5s-35.1,0-35.1,0L128.5,33.2z"/>
		<linearGradient id="XMLID_76_" gradientUnits="userSpaceOnUse" x1="137.3969" y1="38.2478" x2="137.3969" y2="43.2819">
			<stop  offset="0" style="stop-color:#FFFFFF"/>
			<stop  offset="0.1215" style="stop-color:#F9F9FB"/>
			<stop  offset="0.2852" style="stop-color:#E8E9EF"/>
			<stop  offset="0.4729" style="stop-color:#CCCFDC"/>
			<stop  offset="0.6785" style="stop-color:#A4ABC1"/>
			<stop  offset="0.8961" style="stop-color:#727D9F"/>
			<stop  offset="1" style="stop-color:#58648D"/>
		</linearGradient>
		
			<path id="XMLID_27_" fill="url(#XMLID_76_)" stroke="#808285" stroke-width="0.7" stroke-linecap="round" stroke-linejoin="round" stroke-miterlimit="10" d="
			M121.2,38.2h37c0,0-0.9,5-6.4,5s-35.1,0-35.1,0L121.2,38.2z"/>
		<linearGradient id="XMLID_87_" gradientUnits="userSpaceOnUse" x1="130.0219" y1="43.2819" x2="130.0219" y2="48.3161">
			<stop  offset="0" style="stop-color:#FFFFFF"/>
			<stop  offset="0.1215" style="stop-color:#F9F9FB"/>
			<stop  offset="0.2852" style="stop-color:#E8E9EF"/>
			<stop  offset="0.4729" style="stop-color:#CCCFDC"/>
			<stop  offset="0.6785" style="stop-color:#A4ABC1"/>
			<stop  offset="0.8961" style="stop-color:#727D9F"/>
			<stop  offset="1" style="stop-color:#58648D"/>
		</linearGradient>
		
			<path id="XMLID_28_" fill="url(#XMLID_87_)" stroke="#808285" stroke-width="0.7" stroke-linecap="round" stroke-linejoin="round" stroke-miterlimit="10" d="
			M113.8,43.3h37c0,0-0.9,5-6.4,5s-35.1,0-35.1,0L113.8,43.3z"/>
		<linearGradient id="XMLID_91_" gradientUnits="userSpaceOnUse" x1="122.6469" y1="48.3161" x2="122.6469" y2="53.3503">
			<stop  offset="0" style="stop-color:#FFFFFF"/>
			<stop  offset="0.1215" style="stop-color:#F9F9FB"/>
			<stop  offset="0.2852" style="stop-color:#E8E9EF"/>
			<stop  offset="0.4729" style="stop-color:#CCCFDC"/>
			<stop  offset="0.6785" style="stop-color:#A4ABC1"/>
			<stop  offset="0.8961" style="stop-color:#727D9F"/>
			<stop  offset="1" style="stop-color:#58648D"/>
		</linearGradient>
		
			<path id="XMLID_34_" fill="url(#XMLID_91_)" stroke="#808285" stroke-width="0.7" stroke-linecap="round" stroke-linejoin="round" stroke-miterlimit="10" d="
			M106.4,48.3h37c0,0-0.9,5-6.4,5s-35.1,0-35.1,0L106.4,48.3z"/>
		<linearGradient id="XMLID_95_" gradientUnits="userSpaceOnUse" x1="115.2719" y1="53.3503" x2="115.2719" y2="58.3845">
			<stop  offset="0" style="stop-color:#FFFFFF"/>
			<stop  offset="0.1215" style="stop-color:#F9F9FB"/>
			<stop  offset="0.2852" style="stop-color:#E8E9EF"/>
			<stop  offset="0.4729" style="stop-color:#CCCFDC"/>
			<stop  offset="0.6785" style="stop-color:#A4ABC1"/>
			<stop  offset="0.8961" style="stop-color:#727D9F"/>
			<stop  offset="1" style="stop-color:#58648D"/>
		</linearGradient>
		
			<path id="XMLID_51_" fill="url(#XMLID_95_)" stroke="#808285" stroke-width="0.7" stroke-linecap="round" stroke-linejoin="round" stroke-miterlimit="10" d="
			M99,53.4h37c0,0-0.9,5-6.4,5c-5.5,0-35.1,0-35.1,0L99,53.4z"/>
		<linearGradient id="XMLID_96_" gradientUnits="userSpaceOnUse" x1="107.8969" y1="58.3845" x2="107.8969" y2="63.4186">
			<stop  offset="0" style="stop-color:#FFFFFF"/>
			<stop  offset="0.1215" style="stop-color:#F9F9FB"/>
			<stop  offset="0.2852" style="stop-color:#E8E9EF"/>
			<stop  offset="0.4729" style="stop-color:#CCCFDC"/>
			<stop  offset="0.6785" style="stop-color:#A4ABC1"/>
			<stop  offset="0.8961" style="stop-color:#727D9F"/>
			<stop  offset="1" style="stop-color:#58648D"/>
		</linearGradient>
		
			<path id="XMLID_53_" fill="url(#XMLID_96_)" stroke="#808285" stroke-width="0.7" stroke-linecap="round" stroke-linejoin="round" stroke-miterlimit="10" d="
			M91.7,58.4h37c0,0-0.9,5-6.4,5c-5.5,0-35.1,0-35.1,0L91.7,58.4z"/>
	</g>
	<polygon id="XMLID_10_" fill="#174A9C" points="111.5,67.7 81,67.7 81,17.6 133.2,17.6 	"/>
	<g id="XMLID_57_">
		
			<linearGradient id="XMLID_103_" gradientUnits="userSpaceOnUse" x1="1193.193" y1="33.2136" x2="1193.193" y2="38.2478" gradientTransform="matrix(-1 0 0 1 1225.0878 0)">
			<stop  offset="0" style="stop-color:#FFFFFF"/>
			<stop  offset="0.1215" style="stop-color:#F9F9FB"/>
			<stop  offset="0.2852" style="stop-color:#E8E9EF"/>
			<stop  offset="0.4729" style="stop-color:#CCCFDC"/>
			<stop  offset="0.6785" style="stop-color:#A4ABC1"/>
			<stop  offset="0.8961" style="stop-color:#727D9F"/>
			<stop  offset="1" style="stop-color:#58648D"/>
		</linearGradient>
		
			<path id="XMLID_65_" fill="url(#XMLID_103_)" stroke="#808285" stroke-width="0.7" stroke-linecap="round" stroke-linejoin="round" stroke-miterlimit="10" d="
			M48.1,33.2h-37c0,0,0.9,5,6.4,5s35.1,0,35.1,0L48.1,33.2z"/>
		
			<linearGradient id="XMLID_106_" gradientUnits="userSpaceOnUse" x1="1185.818" y1="38.2478" x2="1185.818" y2="43.2819" gradientTransform="matrix(-1 0 0 1 1225.0878 0)">
			<stop  offset="0" style="stop-color:#FFFFFF"/>
			<stop  offset="0.1215" style="stop-color:#F9F9FB"/>
			<stop  offset="0.2852" style="stop-color:#E8E9EF"/>
			<stop  offset="0.4729" style="stop-color:#CCCFDC"/>
			<stop  offset="0.6785" style="stop-color:#A4ABC1"/>
			<stop  offset="0.8961" style="stop-color:#727D9F"/>
			<stop  offset="1" style="stop-color:#58648D"/>
		</linearGradient>
		
			<path id="XMLID_64_" fill="url(#XMLID_106_)" stroke="#808285" stroke-width="0.7" stroke-linecap="round" stroke-linejoin="round" stroke-miterlimit="10" d="
			M55.5,38.2h-37c0,0,0.9,5,6.4,5s35.1,0,35.1,0L55.5,38.2z"/>
		
			<linearGradient id="XMLID_108_" gradientUnits="userSpaceOnUse" x1="1178.443" y1="43.2819" x2="1178.443" y2="48.3161" gradientTransform="matrix(-1 0 0 1 1225.0878 0)">
			<stop  offset="0" style="stop-color:#FFFFFF"/>
			<stop  offset="0.1215" style="stop-color:#F9F9FB"/>
			<stop  offset="0.2852" style="stop-color:#E8E9EF"/>
			<stop  offset="0.4729" style="stop-color:#CCCFDC"/>
			<stop  offset="0.6785" style="stop-color:#A4ABC1"/>
			<stop  offset="0.8961" style="stop-color:#727D9F"/>
			<stop  offset="1" style="stop-color:#58648D"/>
		</linearGradient>
		
			<path id="XMLID_63_" fill="url(#XMLID_108_)" stroke="#808285" stroke-width="0.7" stroke-linecap="round" stroke-linejoin="round" stroke-miterlimit="10" d="
			M62.9,43.3h-37c0,0,0.9,5,6.4,5s35.1,0,35.1,0L62.9,43.3z"/>
		
			<linearGradient id="XMLID_109_" gradientUnits="userSpaceOnUse" x1="1171.068" y1="48.3161" x2="1171.068" y2="53.3503" gradientTransform="matrix(-1 0 0 1 1225.0878 0)">
			<stop  offset="0" style="stop-color:#FFFFFF"/>
			<stop  offset="0.1215" style="stop-color:#F9F9FB"/>
			<stop  offset="0.2852" style="stop-color:#E8E9EF"/>
			<stop  offset="0.4729" style="stop-color:#CCCFDC"/>
			<stop  offset="0.6785" style="stop-color:#A4ABC1"/>
			<stop  offset="0.8961" style="stop-color:#727D9F"/>
			<stop  offset="1" style="stop-color:#58648D"/>
		</linearGradient>
		
			<path id="XMLID_61_" fill="url(#XMLID_109_)" stroke="#808285" stroke-width="0.7" stroke-linecap="round" stroke-linejoin="round" stroke-miterlimit="10" d="
			M70.3,48.3h-37c0,0,0.9,5,6.4,5s35.1,0,35.1,0L70.3,48.3z"/>
		
			<linearGradient id="XMLID_116_" gradientUnits="userSpaceOnUse" x1="1163.693" y1="53.3503" x2="1163.693" y2="58.3845" gradientTransform="matrix(-1 0 0 1 1225.0878 0)">
			<stop  offset="0" style="stop-color:#FFFFFF"/>
			<stop  offset="0.1215" style="stop-color:#F9F9FB"/>
			<stop  offset="0.2852" style="stop-color:#E8E9EF"/>
			<stop  offset="0.4729" style="stop-color:#CCCFDC"/>
			<stop  offset="0.6785" style="stop-color:#A4ABC1"/>
			<stop  offset="0.8961" style="stop-color:#727D9F"/>
			<stop  offset="1" style="stop-color:#58648D"/>
		</linearGradient>
		
			<path id="XMLID_60_" fill="url(#XMLID_116_)" stroke="#808285" stroke-width="0.7" stroke-linecap="round" stroke-linejoin="round" stroke-miterlimit="10" d="
			M77.6,53.4h-37c0,0,0.9,5,6.4,5s35.1,0,35.1,0L77.6,53.4z"/>
		
			<linearGradient id="XMLID_118_" gradientUnits="userSpaceOnUse" x1="1156.318" y1="58.3845" x2="1156.318" y2="63.4186" gradientTransform="matrix(-1 0 0 1 1225.0878 0)">
			<stop  offset="0" style="stop-color:#FFFFFF"/>
			<stop  offset="0.1215" style="stop-color:#F9F9FB"/>
			<stop  offset="0.2852" style="stop-color:#E8E9EF"/>
			<stop  offset="0.4729" style="stop-color:#CCCFDC"/>
			<stop  offset="0.6785" style="stop-color:#A4ABC1"/>
			<stop  offset="0.8961" style="stop-color:#727D9F"/>
			<stop  offset="1" style="stop-color:#58648D"/>
		</linearGradient>
		
			<path id="XMLID_59_" fill="url(#XMLID_118_)" stroke="#808285" stroke-width="0.7" stroke-linecap="round" stroke-linejoin="round" stroke-miterlimit="10" d="
			M85,58.4H48c0,0,0.9,5,6.4,5s35.1,0,35.1,0L85,58.4z"/>
	</g>
	<polygon id="XMLID_58_" fill="#174A9C" points="65.1,67.7 95.6,67.7 95.6,17.6 43.5,17.6 	"/>
	<g id="XMLID_42_">
		<defs>
			<path id="XMLID_11_" d="M88.7,114.7L40,20.3h98.2L88.7,114.7z M46.6,24.3L88.7,106l42.9-81.7H46.6z"/>
		</defs>
		<clipPath id="XMLID_123_">
			<use xlink:href="#XMLID_11_"  overflow="visible"/>
		</clipPath>
		<rect id="XMLID_16_" x="38.3" y="16.3" clip-path="url(#XMLID_123_)" fill="#FFFFFF" width="102.9" height="9.2"/>
		<rect id="XMLID_43_" x="38.3" y="25.5" clip-path="url(#XMLID_123_)" fill="#FFFFFF" width="102.9" height="9.6"/>
		<rect id="XMLID_44_" x="38.3" y="35.1" clip-path="url(#XMLID_123_)" width="102.9" height="9.6"/>
		<rect id="XMLID_46_" x="38.3" y="44.7" clip-path="url(#XMLID_123_)" fill="#FFFFFF" width="102.9" height="9.6"/>
		<rect id="XMLID_45_" x="38.3" y="54.3" clip-path="url(#XMLID_123_)" width="102.9" height="9.6"/>
		<rect id="XMLID_47_" x="38.3" y="86.8" clip-path="url(#XMLID_123_)" width="102.9" height="9.6"/>
		<rect id="XMLID_48_" x="38.3" y="77.2" clip-path="url(#XMLID_123_)" fill="#FFFFFF" width="102.9" height="9.6"/>
		<rect id="XMLID_50_" x="38.3" y="106" clip-path="url(#XMLID_123_)" width="102.9" height="9.6"/>
		<rect id="XMLID_49_" x="38.3" y="96.4" clip-path="url(#XMLID_123_)" fill="#FFFFFF" width="102.9" height="9.6"/>
		<rect id="XMLID_7_" x="36.9" y="16.3" clip-path="url(#XMLID_123_)" width="9.4" height="9.2"/>
		<rect id="XMLID_20_" x="55.9" y="16.3" clip-path="url(#XMLID_123_)" width="9.4" height="9.2"/>
		<rect id="XMLID_25_" x="74.9" y="16.3" clip-path="url(#XMLID_123_)" width="9.4" height="9.2"/>
		<rect id="XMLID_35_" x="93.9" y="16.3" clip-path="url(#XMLID_123_)" width="9.4" height="9.2"/>
		<rect id="XMLID_36_" x="112.8" y="16.3" clip-path="url(#XMLID_123_)" width="9.4" height="9.2"/>
		<rect id="XMLID_37_" x="131.8" y="16.3" clip-path="url(#XMLID_123_)" width="9.4" height="9.2"/>
	</g>
	<g id="XMLID_52_">
		<g id="XMLID_54_">
			<path id="XMLID_168_" d="M136.5,21.3l-47.9,91.2l-47-91.2H136.5 M88.7,108.2l0.9-1.7l42.9-81.7l0.8-1.5h-1.7h-85h-1.6l0.8,1.5
				l42.1,81.7L88.7,108.2 M138.2,20.3H40l48.7,94.4L138.2,20.3L138.2,20.3z M131.6,24.3L88.7,106L46.6,24.3H131.6L131.6,24.3z"/>
		</g>
	</g>
	<g id="XMLID_92_">
		<path id="XMLID_150_" fill="#EC262A" d="M49.9,77.4v-35h19.2l0,0.1c4.7,0.6,8.2,4.5,8.2,9.3c0,2.7-1.1,5.2-3.2,7
			c3,1.8,4.8,5.1,4.8,8.6c0,4.9-3.7,9.2-8.6,9.9l-1.2,0.1H49.9z"/>
		<path id="XMLID_126_" d="M68.9,42.7L68.9,42.7c4.6,0.5,8.2,4.4,8.2,9.1c0,2.8-1.3,5.4-3.3,7c3,1.7,5,4.9,5,8.5
			c0,4.9-3.6,9-8.4,9.7l-1.2,0.1h-19V42.7H68.9 M68.9,42.2H50.1h-0.5v0.5v34.5v0.5h0.5h19h0l0,0l1.2-0.1c5-0.8,8.8-5.1,8.8-10.2
			c0-3.5-1.8-6.7-4.6-8.6c1.9-1.8,3-4.3,3-7c0-4.8-3.5-8.8-8.2-9.5l0-0.1L68.9,42.2L68.9,42.2z"/>
	</g>
	<g id="XMLID_33_">
		<g id="XMLID_81_">
			<polygon id="XMLID_158_" fill="#EC262A" points="98.9,76.7 98.9,42.4 127.8,42.4 127.8,52 110.4,52 110.4,55 123.6,55 
				123.6,64.1 110.4,64.1 110.4,67.1 127.8,67.1 127.8,76.7 			"/>
			<path id="XMLID_151_" d="M127.5,42.7v9.1h-17.3v3.5h13.1v8.5h-13.1v3.5h17.3v9.1h-17.3h-11v-9.1v-3.5v-8.5v-3.5v-9.1h11H127.5
				 M128,42.2h-0.5h-17.3h-11h-0.5v0.5v9.1v3.5v8.5v3.5v9.1v0.5h0.5h11h17.3h0.5v-0.5v-9.1v-0.5h-0.5h-16.8v-2.5h12.6h0.5v-0.5v-8.5
				v-0.5h-0.5h-12.6v-2.5h16.8h0.5v-0.5v-9.1V42.2L128,42.2z"/>
		</g>
	</g>
	<g id="XMLID_26_">
		<g id="XMLID_67_">
			<polygon id="XMLID_157_" fill="#EC262A" points="80.1,88 80.1,40.2 56.4,40.2 48.9,25.7 128.4,25.7 120.9,40.2 97.2,40.2 
				97.2,88 88.7,103.5 			"/>
			<path id="XMLID_152_" d="M128,25.9l-7.2,14H97v48L88.7,103l-8.3-15.1v-48H56.5l-7.2-14H128 M128.8,25.4H128H49.3h-0.8l0.4,0.7
				l7.2,14l0.1,0.3h0.3h23.3v47.5V88l0.1,0.1l8.3,15.1l0.4,0.8l0.4-0.8l8.3-15.1l0.1-0.1v-0.1V40.4h23.3h0.3l0.1-0.3l7.2-14
				L128.8,25.4L128.8,25.4z"/>
		</g>
	</g>
	<path id="XMLID_21_" fill="none" d="M66.4,53.1c0-1-0.8-1.9-1.9-1.9h-2.2v3.7h2.2C65.6,54.9,66.4,54.1,66.4,53.1z"/>
	<g id="XMLID_15_">
		<g id="XMLID_29_">
			<g id="XMLID_39_">
				<path id="XMLID_4_" fill="#EC262A" d="M64.6,50.2c1.6,0,2.9,1.3,2.9,2.9c0,1.6-1.3,2.9-2.9,2.9h-3.2v-5.7H64.6z M66.4,53.1
					c0-1-0.8-1.9-1.9-1.9h-2.2v3.7h2.2C65.6,54.9,66.4,54.1,66.4,53.1z"/>
				<path id="XMLID_3_" fill="#164A9A" d="M64.6,51.2c1,0,1.9,0.8,1.9,1.9s-0.8,1.9-1.9,1.9h-2.2v-3.7H64.6z"/>
			</g>
			<g id="XMLID_41_">
			</g>
		</g>
	</g>
	<path id="XMLID_101_" fill="#EC262A" d="M64.9,62.3h-3.6v6.4h3.6c1.8,0,3.2-1.4,3.2-3.2C68.1,63.7,66.7,62.3,64.9,62.3z M64.9,67.7
		h-2.6v-4.4h2.6c1.2,0,2.2,1,2.2,2.2S66.2,67.7,64.9,67.7z"/>
	<g id="XMLID_88_">
		<path id="XMLID_89_" fill="#FFFFFF" d="M130.3,73.9h-0.9v-0.7h2.7v0.7h-0.9v2.3h-0.8V73.9z"/>
		<path id="XMLID_93_" fill="#FFFFFF" d="M132.4,73.1h0.9l0.7,1.2l0.7-1.2h0.9v3h-0.8v-1.7l-0.8,1.2h0l-0.8-1.2v1.7h-0.8V73.1z"/>
	</g>
	<path id="XMLID_83_" fill="#F7EC1F" d="M73.2,59.7L72,59l1.1-0.9c1.9-1.5,3-3.8,3-6.3c0-4.2-3.1-7.6-7.3-8.1l-0.4,0H51.1v32.5h18
		l1.1-0.1c4.2-0.6,7.5-4.4,7.5-8.7C77.7,64.2,76,61.3,73.2,59.7z M61.4,50.2h3.2c1.6,0,2.9,1.3,2.9,2.9s-1.3,2.9-2.9,2.9h-3.2V50.2z
		 M64.9,68.7h-3.6v-6.4h3.6c1.8,0,3.2,1.4,3.2,3.2C68.1,67.2,66.7,68.7,64.9,68.7z"/>
	<g id="XMLID_102_">
		<path id="XMLID_120_" fill="#FFFFFF" d="M62.6,67.4v-3.9h2.3c1.1,0,1.9,0.9,1.9,1.9s-0.9,1.9-1.9,1.9H62.6z"/>
		<path id="XMLID_110_" d="M64.9,63.8c0.9,0,1.7,0.8,1.7,1.7s-0.8,1.7-1.7,1.7h-2.1v-3.4H64.9 M64.9,63.3h-2.6v4.4h2.6
			c1.2,0,2.2-1,2.2-2.2S66.2,63.3,64.9,63.3L64.9,63.3z"/>
	</g>
	<polygon id="XMLID_31_" fill="#F7EC1F" points="126.3,26.9 51,26.9 57.1,38.9 81.3,38.9 81.3,87.6 88.7,100.9 96,87.6 96,38.9 
		120.2,38.9 	"/>
	<polygon id="XMLID_73_" fill="#F7EC1F" points="109.2,56.3 109.2,55.3 109.2,51.8 109.2,50.8 110.2,50.8 126.5,50.8 126.5,43.7 
		110.2,43.7 100.2,43.7 100.2,51.8 100.2,55.3 100.2,63.8 100.2,67.3 100.2,75.4 110.2,75.4 126.5,75.4 126.5,68.3 110.2,68.3 
		109.2,68.3 109.2,67.3 109.2,63.8 109.2,62.8 110.2,62.8 122.3,62.8 122.3,56.3 110.2,56.3 	"/>
</g>
</svg>
